<svg width="321" height="180" viewBox="0 0 321 180" fill="none" xmlns="http://www.w3.org/2000/svg">
<path d="M230.256 0H89.9034C40.2511 0 0 40.2511 0 89.9034V89.9085C0 139.561 40.2511 179.812 89.9034 179.812H230.256C279.908 179.812 320.159 139.561 320.159 89.9085V89.9034C320.159 40.2511 279.908 0 230.256 0Z" fill="#F60903"/>
<path d="M228.299 7.68347H220.595C175.183 7.68347 138.37 44.4957 138.37 89.9059C138.37 135.316 175.183 172.128 220.595 172.128H228.299C273.71 172.128 310.524 135.316 310.524 89.9059C310.524 44.4957 273.71 7.68347 228.299 7.68347Z" fill="white"/>
<path d="M71.5632 77.2564V110.714C71.5632 112.568 71.3604 114.306 70.9549 115.929C70.6072 117.493 69.9989 118.854 69.1299 120.013C68.3188 121.172 67.218 122.099 65.8275 122.794C64.4371 123.431 62.728 123.75 60.7002 123.75H48.4468C46.419 123.75 44.7099 123.431 43.3194 122.794C41.929 122.099 40.7992 121.172 39.9302 120.013C39.1191 118.854 38.5108 117.493 38.1052 115.929C37.7576 114.306 37.5838 112.568 37.5838 110.714V77.2564C37.5838 75.4025 37.7576 73.6934 38.1052 72.1291C38.4528 70.5069 39.0322 69.1164 39.8433 67.9577C40.7123 66.7411 41.8421 65.8141 43.2325 65.1768C44.623 64.4816 46.3611 64.134 48.4468 64.134H60.7002C62.7859 64.134 64.524 64.4816 65.9144 65.1768C67.3049 65.8141 68.4057 66.7411 69.2168 67.9577C70.0858 69.1164 70.6941 70.5069 71.0418 72.1291C71.3894 73.6934 71.5632 75.4025 71.5632 77.2564ZM60.7002 110.714V77.2564C60.7002 76.6191 60.4974 76.0688 60.0919 75.6053C59.6863 75.1418 59.1649 74.91 58.5276 74.91H50.6194C49.9821 74.91 49.4606 75.1418 49.0551 75.6053C48.6495 76.0688 48.4468 76.6191 48.4468 77.2564V110.714C48.4468 111.352 48.6495 111.873 49.0551 112.279C49.4606 112.684 49.9821 112.887 50.6194 112.887H58.5276C59.1649 112.887 59.6863 112.684 60.0919 112.279C60.4974 111.873 60.7002 111.352 60.7002 110.714ZM111.1 64.134V123.75H100.237L87.2011 92.3777V123.75H76.3381V64.134H87.2011L100.237 95.5062V64.134H111.1Z" fill="white"/>
<path d="M177.59 86.4037V77.8721C177.59 77.3033 177.363 76.8199 176.908 76.4217C176.51 76.0236 176.026 75.8245 175.457 75.8245H164.11V89.731H174.178C175.088 89.731 175.884 89.4182 176.566 88.7925C177.249 88.11 177.59 87.3137 177.59 86.4037ZM188.255 107.818C188.255 109.695 188.141 111.6 187.913 113.534C187.686 115.411 187.202 117.117 186.463 118.653C185.724 120.189 184.643 121.44 183.221 122.407C181.799 123.317 179.922 123.772 177.59 123.772H153.446V65.2453H177.59C179.922 65.2453 181.771 65.7288 183.136 66.6957C184.558 67.6058 185.638 68.8286 186.378 70.3643C187.174 71.8431 187.686 73.521 187.913 75.3979C188.141 77.2749 188.255 79.1518 188.255 81.0288C188.255 82.5076 188.226 83.9295 188.169 85.2946C188.169 86.6596 187.97 87.9109 187.572 89.0485C187.231 90.186 186.605 91.2098 185.695 92.1198C184.842 93.0299 183.591 93.7977 181.941 94.4233C183.534 95.049 184.757 95.8453 185.61 96.8122C186.463 97.7222 187.089 98.746 187.487 99.8836C187.885 101.021 188.113 102.272 188.169 103.637C188.226 105.003 188.255 106.396 188.255 107.818ZM177.59 111.06V103.637C177.59 102.727 177.249 101.96 176.566 101.334C175.884 100.651 175.088 100.31 174.178 100.31H164.11V113.108H175.713C176.282 113.108 176.737 112.908 177.078 112.51C177.42 112.055 177.59 111.572 177.59 111.06ZM227.201 113.108V123.772H197.17V65.2453H227.201V75.8245H207.835V89.731H224.813V100.31H207.835V113.108H227.201ZM264.594 113.108V123.772H234.563V65.2453H264.594V75.8245H245.227V89.731H262.205V100.31H245.227V113.108H264.594ZM301.815 65.2453V75.8245H282.619V89.731H299.682V100.31H282.619V123.772H271.955V65.2453H301.815Z" fill="#F60903"/>
</svg>
